<svg xmlns:mydata="http://www.w3.org/2000/svg" mydata:contrastcolor="ffffff" mydata:template="Contrast" mydata:presentation="2.5" mydata:layouttype="undefined" mydata:specialfontid="undefined" mydata:id1="616" mydata:id2="281" mydata:companyname="Eco Rewards" mydata:companytagline="Recicla, Gana, Cuida el Planeta con EcoRewards." version="1.1"
    xmlns="http://www.w3.org/2000/svg"
    xmlns:xlink="http://www.w3.org/1999/xlink" viewBox="180.39728399896413 106.00000000000003 189.20543200207172 258" class="watermark-logo">
    <g fill="#222223" fill-rule="none" stroke="none" stroke-width="1" stroke-linecap="butt" stroke-linejoin="miter" stroke-miterlimit="10" stroke-dasharray="" stroke-dashoffset="0" font-family="none" font-weight="none" font-size="none" text-anchor="none" style="mix-blend-mode: normal">
        <g data-paper-data="{&quot;isGlobalGroup&quot;:true,&quot;bounds&quot;:{&quot;x&quot;:180.39728399896413,&quot;y&quot;:106.00000000000003,&quot;width&quot;:189.20543200207172,&quot;height&quot;:258}}">
            <g data-paper-data="{&quot;fillRule&quot;:&quot;nonzero&quot;,&quot;fillRuleOriginal&quot;:&quot;nonzero&quot;,&quot;isIcon&quot;:true,&quot;iconStyle&quot;:&quot;standalone&quot;,&quot;selectedEffects&quot;:{&quot;container&quot;:&quot;&quot;,&quot;transformation&quot;:&quot;&quot;,&quot;pattern&quot;:&quot;&quot;},&quot;bounds&quot;:{&quot;x&quot;:228.5724469225862,&quot;y&quot;:199.91442701852566,&quot;width&quot;:89.80391832950875,&quot;height&quot;:69.52962651827613},&quot;iconType&quot;:&quot;initial&quot;,&quot;initialText&quot;:&quot;er&quot;,&quot;rawInitialId&quot;:&quot;368&quot;,&quot;suitableAsStandaloneIcon&quot;:true}" fill-rule="nonzero">
                <path d="M239.89122,269.44405c2.36326,0 4.8509,-1.11944 7.21417,-3.23394l2.86079,-2.48764l4.35338,-3.85585c3.60708,-3.85585 7.58731,-12.43822 7.58731,-16.54283c0,-1.24382 -0.37315,-1.99011 -0.99506,-2.23888c-0.12438,-0.12438 -0.24876,-0.12438 -0.49753,-0.12438c-0.24876,0 -0.49753,0.12438 -0.87068,0.49753c-0.37315,0.37315 -0.62191,0.49753 -0.74629,0.62191l-0.74629,0.62191c-3.35832,3.60708 -8.08484,7.58731 -12.43822,11.07001c-2.1145,1.61697 -4.8509,3.23394 -7.96046,4.60214l0.24876,-2.61203c0.12438,-5.34843 2.23888,-8.95552 7.08978,-11.44316c9.20428,-4.72652 16.91597,-8.83113 23.0107,-12.18945c3.10955,-1.61697 4.72652,-4.35338 4.72652,-8.08484c0,-2.36326 -0.62191,-3.10955 -1.99011,-2.73641c-2.61203,0.62191 -4.8509,1.24382 -6.71664,1.86573l-3.60708,1.49259c-5.5972,2.23888 -9.57743,3.73146 -12.18945,4.60214c0.12438,-0.62191 0.12438,-1.74135 0.24876,-3.35832c0.12438,-2.98517 0.74629,-3.85585 2.23888,-4.97529c5.5972,-4.10461 10.82125,-7.21417 15.67215,-9.32866c2.86079,-1.11944 4.22899,-3.4827 4.22899,-5.97034c0,-1.74135 -0.62191,-3.4827 -1.74135,-5.09967c-0.37315,-0.37315 -0.99506,-0.62191 -1.86573,-0.62191c-1.3682,0 -3.23394,0.49753 -5.5972,1.3682c-6.21911,2.61203 -11.56754,5.72158 -16.16968,9.20428c-1.24382,0.87068 -1.99011,1.99011 -2.36326,3.23394c-0.37315,1.11944 -1.3682,3.23394 -2.98517,6.21911c-2.1145,4.10461 -3.73146,7.71169 -4.72652,11.07001l-4.10461,12.06507c-2.1145,5.84596 -2.48764,6.84102 -2.48764,10.19934c0,4.60214 0.74629,8.20922 3.10955,11.31878c2.36326,3.23394 5.09967,4.8509 8.20922,4.8509zM270.24047,267.45394c1.74135,0 2.98517,0 3.85585,-0.12438c1.11944,0 2.1145,-0.62191 1.99011,-1.99011c-0.12438,-0.62191 -0.12438,-1.49259 -0.12438,-2.73641c0,-2.1145 0.37315,-5.72158 1.11944,-10.69687c0.37315,-2.23888 0.74629,-4.72652 1.11944,-7.58731c0.12438,-1.61697 0.37315,-1.74135 2.23888,-1.74135c4.60214,0 7.71169,0 9.32866,0.12438c3.10955,0 12.31383,-0.62191 16.91597,-1.24382c1.3682,-0.37315 2.1145,-0.62191 2.73641,-1.99011c0.24876,-0.62191 0.24876,-1.3682 0.12438,-2.1145c-0.37315,-0.99506 -0.99506,-1.11944 -1.61697,-1.24382h-0.74629c-2.86079,-0.49753 -8.08484,-0.99506 -10.4481,-1.11944c-4.60214,-0.37315 -6.9654,-0.62191 -7.21417,-0.87068c0,-0.62191 0.24876,-1.11944 0.74629,-1.49259c0.49753,-0.24876 0.74629,-0.37315 0.87068,-0.49753c7.46293,-4.97529 19.77676,-12.68698 26.24464,-21.51811c0.62191,-0.87068 0.99506,-1.86573 0.99506,-2.98517c0,-1.74135 -0.87068,-3.10955 -2.73641,-4.22899c-3.35832,-1.86573 -6.9654,-2.86079 -10.69687,-2.86079c-1.11944,0 -1.99011,0 -2.61203,0.12438c-11.07001,1.49259 -19.15485,3.10955 -26.74216,6.21911c-3.85585,1.61697 -6.84102,3.35832 -8.95552,5.47281c-0.62191,0.49753 -1.3682,1.11944 -1.24382,1.99011c0.12438,0.37315 0.24876,0.87068 0.37315,1.61697c0.37315,1.49259 0.87068,2.61203 1.99011,3.23394c1.49259,0.99506 1.74135,2.1145 1.61697,3.98023l-2.1145,18.40856l-0.74629,6.34349c-0.37315,3.60708 -0.62191,6.9654 -0.62191,10.07495c0,2.61203 0.74629,5.34843 2.36326,8.3336c0.37315,0.62191 1.11944,0.99506 1.99011,1.11944zM280.68857,227.40288c-0.12438,-3.4827 0.37315,-7.33855 0.99506,-10.94563c0.12438,-0.37315 0.37315,-0.74629 0.74629,-0.99506l0.87068,-0.62191c1.3682,-0.87068 2.98517,-1.49259 4.97529,-1.99011c1.86573,-0.37315 3.23394,-0.74629 3.98023,-0.99506c3.35832,-0.99506 8.3336,-1.99011 9.95057,-2.36326h0.24876c0.37315,0 0.74629,0.24876 0.99506,0.62191c-5.47281,5.09967 -10.32372,8.58237 -20.27429,15.54777z" data-paper-data="{&quot;isPathIcon&quot;:true}" style="fill: rgb(255, 255, 255);"></path>
            </g>
            <g data-paper-data="{&quot;isPrimaryText&quot;:true}" fill-rule="nonzero">
                <path d="M204.09057,164.95448l-1.44037,-0.74974l-2.39158,4.59461l-0.80668,1.54977l1.44037,0.74974l5.56094,2.89457l1.44037,0.74974l2.38847,1.24324l1.44037,0.74974l0.80668,-1.54977l2.39158,-4.59461l-1.44037,-0.74974l-2.39158,4.59461l-2.38847,-1.24324l2.31565,-4.44875l-1.44037,-0.74974l-2.31565,4.44875l-5.56094,-2.89457z" data-paper-data="{&quot;glyphName&quot;:&quot;e&quot;,&quot;glyphIndex&quot;:0,&quot;firstGlyphOfWord&quot;:true,&quot;word&quot;:1}" style="fill: rgb(255, 255, 255);"></path>
                <path d="M220.29509,158.00582c0.94951,1.12715 1.05832,2.05279 0.44094,2.74155c-1.02897,1.14793 -3.41612,-0.7158 -5.35995,-2.45819c-1.92853,-1.72867 -4.04128,-3.89852 -3.0123,-5.04645c1.00153,-1.11732 3.4024,0.7311 5.33092,2.45978l1.15245,-1.28568c-2.73973,-2.45581 -5.75013,-4.27093 -7.616,-2.18935c-1.89331,2.11219 0.25275,4.89157 2.99248,7.34739c2.75504,2.46953 5.75171,4.29995 7.64502,2.18776c1.35824,-1.51527 1.1074,-3.17551 -0.43483,-5.02718z" data-paper-data="{&quot;glyphName&quot;:&quot;c&quot;,&quot;glyphIndex&quot;:1,&quot;word&quot;:1}" style="fill: rgb(255, 255, 255);"></path>
                <path d="M224.8303,140.1811c-2.32708,1.62194 -0.86354,4.83612 1.22853,7.83771c2.10382,3.01846 4.60111,5.48707 6.92819,3.86513c2.29335,-1.59843 0.97085,-4.61026 -1.26226,-7.81421c-2.09207,-3.00159 -4.60111,-5.48707 -6.89446,-3.88864zM232.12903,150.65295c-1.26472,0.88149 -3.16107,-1.47982 -4.65372,-3.62141c-1.4809,-2.12472 -3.03999,-4.7211 -1.77528,-5.60259c1.23099,-0.85798 3.12734,1.50333 4.60824,3.62805c1.49266,2.14159 3.05175,4.73796 1.82076,5.59595z" data-paper-data="{&quot;glyphName&quot;:&quot;o&quot;,&quot;glyphIndex&quot;:2,&quot;lastGlyphOfWord&quot;:true,&quot;word&quot;:1}" style="fill: rgb(255, 255, 255);"></path>
                <path d="M259.59152,138.74157c-0.70208,0.15699 -1.19473,-1.48102 -1.83526,-1.99072c1.31656,-0.79989 2.63211,-2.3578 1.94135,-5.44693c-1.13483,-5.075 -4.50479,-4.32144 -6.18977,-3.94466c-0.84249,0.18839 -1.6557,0.60192 -1.6557,0.60192v0l3.01873,13.4999l1.70504,-0.38127l-0.8029,-3.59061c1.68498,-0.37678 1.6723,3.52258 4.19977,2.95741c1.04308,-0.23324 1.44725,-1.43992 1.44725,-1.43992l-1.28081,-0.8299c0,0 -0.12646,0.47059 -0.5477,0.56478zM253.88462,129.04425c1.68498,-0.37678 3.4193,-0.53291 4.12801,2.63646c0.65937,2.94872 -0.93142,3.74674 -2.6164,4.12352z" data-paper-data="{&quot;glyphName&quot;:&quot;r&quot;,&quot;glyphIndex&quot;:3,&quot;firstGlyphOfWord&quot;:true,&quot;word&quot;:2}" style="fill: rgb(255, 255, 255);"></path>
                <path d="M276.45953,126.60415l-0.03611,-1.62342l-5.1785,0.11519l-1.74672,0.03885l0.03611,1.62342l0.13942,6.26762l0.03611,1.62342l0.05988,2.692l0.03611,1.62342l1.74672,-0.03885l5.1785,-0.11519l-0.03611,-1.62342l-5.1785,0.11519l-0.05988,-2.692l5.0141,-0.11154l-0.03611,-1.62342l-5.0141,0.11154l-0.13942,-6.26762z" data-paper-data="{&quot;glyphName&quot;:&quot;e&quot;,&quot;glyphIndex&quot;:4,&quot;word&quot;:2}" style="fill: rgb(255, 255, 255);"></path>
                <path d="M294.95248,127.26167l-3.11925,10.22367l0.97894,-10.63137l-0.42402,-0.08077l-0.84805,-0.16154l-0.42402,-0.08077l-2.95772,10.25444l0.8376,-10.6583l-1.69609,-0.32309l-0.44823,13.99665l0.40383,0.07693l0.64613,0.12308l0.62594,0.11923l2.57502,-8.90449l-0.87893,9.22757l0.64613,0.12308l0.64613,0.12308l0.42402,0.08077l4.70866,-13.18509z" data-paper-data="{&quot;glyphName&quot;:&quot;w&quot;,&quot;glyphIndex&quot;:5,&quot;word&quot;:2}" style="fill: rgb(255, 255, 255);"></path>
                <path d="M309.55585,131.69218c-2.61657,-1.09525 -4.28372,1.23736 -5.95834,5.23805c-1.33335,3.18538 -2.6667,6.37077 -2.6667,6.37077l1.59269,0.66667c0,0 0.57143,-1.36516 1.33335,-3.18538l3.18538,1.33335c-0.76191,1.82022 -1.33335,3.18538 -1.33335,3.18538l1.61165,0.67461c0,0 1.33335,-3.18538 2.6667,-6.37077c1.58732,-3.79212 2.14726,-6.83331 -0.43138,-7.91268zM304.48384,139.2844c0.2381,-0.56882 0.46826,-1.11868 0.70636,-1.68749c1.42065,-3.39395 2.53312,-4.93374 3.7466,-4.4258c1.17556,0.49207 0.85944,2.36519 -0.56121,5.75914c-0.2381,0.56882 -0.46826,1.11868 -0.70636,1.68749z" data-paper-data="{&quot;glyphName&quot;:&quot;a&quot;,&quot;glyphIndex&quot;:6,&quot;word&quot;:2}" style="fill: rgb(255, 255, 255);"></path>
                <path d="M319.89894,151.73666c-0.58707,-0.41582 0.29839,-1.87929 0.24736,-2.69628c1.47604,0.44097 3.51397,0.37314 5.3436,-2.20995c3.00581,-4.24365 0.1879,-6.2396 -1.22106,-7.23758c-0.70448,-0.49899 -1.55642,-0.82535 -1.55642,-0.82535v0l-7.9957,11.28844l1.42573,1.00986l2.12664,-3.00242c1.40896,0.99798 -1.49345,3.60205 0.61999,5.09902c0.87221,0.6178 2.03863,0.10899 2.03863,0.10899l-0.24254,-1.50678c0,0 -0.434,0.22155 -0.78624,-0.02794zM323.27086,141.00181c1.40896,0.99798 2.68723,2.18046 0.81008,4.83064c-1.74646,2.46568 -3.40491,1.81994 -4.81387,0.82196z" data-paper-data="{&quot;glyphName&quot;:&quot;r&quot;,&quot;glyphIndex&quot;:7,&quot;word&quot;:2}" style="fill: rgb(255, 255, 255);"></path>
                <path d="M337.78457,151.12506c-0.58807,-0.65982 -1.33126,-1.15386 -1.33126,-1.15386l-10.32695,9.20403c0,0 0.40561,0.79491 0.99368,1.45473c0.56072,0.62913 3.6015,3.70107 8.77264,-0.90778c5.1558,-4.59518 2.45261,-7.96799 1.89189,-8.59712zM328.33227,159.54955l8.24008,-7.34408c0.56072,0.62913 2.0384,2.78137 -1.82845,6.22776c-3.8822,3.46006 -5.8509,1.74545 -6.41162,1.11632z" data-paper-data="{&quot;glyphName&quot;:&quot;d&quot;,&quot;glyphIndex&quot;:8,&quot;word&quot;:2}" style="fill: rgb(255, 255, 255);"></path>
                <path d="M347.06787,172.16988c1.55119,-0.80395 3.66811,-1.9011 2.06967,-4.98523c-1.29577,-2.50015 -3.78435,-1.67341 -4.35008,-1.3802c-4.76307,2.46859 -2.36469,6.82817 -4.86484,8.12395c-0.76647,0.39724 -1.64365,0.13418 -2.05036,-0.65054c-0.30266,-0.58398 -0.51741,-1.44503 1.25277,-2.36248l-0.79449,-1.53294c-1.95268,1.01203 -2.89709,2.4507 -1.79048,4.58587c1.39981,2.7009 3.61131,1.78624 4.17704,1.49303c3.74111,-1.93893 1.10615,-6.1296 4.88376,-8.08745c1.14971,-0.59587 2.00585,0.11798 2.20447,0.50121c0.69991,1.35045 0.01923,1.95789 -1.53196,2.76184z" data-paper-data="{&quot;glyphName&quot;:&quot;s&quot;,&quot;glyphIndex&quot;:9,&quot;lastGlyphOfWord&quot;:true,&quot;word&quot;:2}" style="fill: rgb(255, 255, 255);"></path>
            </g>
            <g data-paper-data="{&quot;isSecondaryText&quot;:true}" fill-rule="nonzero">
                <path d="M199.12524,280.25028c-0.0274,-0.20402 0.45173,-0.30398 0.61287,-0.47398c0.19549,0.39509 0.60709,0.80863 1.5048,0.68806c1.4748,-0.19807 1.34328,-1.17738 1.27752,-1.66704c-0.03288,-0.24483 -0.13067,-0.48688 -0.13067,-0.48688v0l-3.92309,0.52688l0.06654,0.49549l1.04344,-0.14014c0.06576,0.48966 -1.04553,0.38966 -0.94689,1.12415c0.04071,0.30312 0.37471,0.44817 0.37471,0.44817l0.26824,-0.34461c0,0 -0.13103,-0.04768 -0.14747,-0.1701zM202.03076,278.86308c0.06576,0.48966 0.0674,0.98793 -0.85362,1.11162c-0.8569,0.11508 -1.04508,-0.35813 -1.11084,-0.84779z" data-paper-data="{&quot;glyphName&quot;:&quot;r&quot;,&quot;glyphIndex&quot;:0,&quot;firstGlyphOfWord&quot;:true,&quot;word&quot;:1}" style="fill: rgb(255, 255, 255);"></path>
                <path d="M203.0643,284.87526l0.45423,-0.09782l-0.31205,-1.44894l-0.10525,-0.48873l-0.45423,0.09782l-1.75368,0.37767l-0.45423,0.09782l-0.75322,0.16221l-0.45423,0.09782l0.10525,0.48873l0.31205,1.44894l0.45423,-0.09782l-0.31205,-1.44894l0.75322,-0.16221l0.30214,1.40294l0.45423,-0.09782l-0.30214,-1.40294l1.75368,-0.37767z" data-paper-data="{&quot;glyphName&quot;:&quot;e&quot;,&quot;glyphIndex&quot;:1,&quot;word&quot;:1}" style="fill: rgb(255, 255, 255);"></path>
                <path d="M201.74334,289.56463c-0.41696,0.06317 -0.65907,-0.04866 -0.73482,-0.30226c-0.12626,-0.42267 0.68534,-0.72648 1.40105,-0.94027c0.71008,-0.21211 1.55534,-0.40321 1.68159,0.01945c0.12289,0.41139 -0.68702,0.72085 -1.3971,0.93295l0.14141,0.47339c1.00876,-0.30133 1.90166,-0.76448 1.67272,-1.53091c-0.23231,-0.7777 -1.23127,-0.66959 -2.24003,-0.36827c-1.0144,0.30301 -1.90898,0.76053 -1.67667,1.53823c0.16666,0.55792 0.60923,0.74491 1.29157,0.64544z" data-paper-data="{&quot;glyphName&quot;:&quot;c&quot;,&quot;glyphIndex&quot;:2,&quot;word&quot;:1}" style="fill: rgb(255, 255, 255);"></path>
                <path d="M202.05667,293.5517l3.70935,-1.38166l-0.17245,-0.46298l-3.70935,1.38166z" data-paper-data="{&quot;glyphName&quot;:&quot;i&quot;,&quot;glyphIndex&quot;:3,&quot;word&quot;:1}" style="fill: rgb(255, 255, 255);"></path>
                <path d="M204.67389,297.24266c-0.40502,0.1175 -0.65974,0.03851 -0.76821,-0.20291c-0.18079,-0.40237 0.58375,-0.81037 1.2651,-1.11651c0.67598,-0.30373 1.48873,-0.60443 1.66952,-0.20206c0.17597,0.39164 -0.58616,0.805 -1.26214,1.10873l0.20248,0.45065c0.96032,-0.43149 1.78449,-1.00813 1.45666,-1.73776c-0.33265,-0.74036 -1.30869,-0.5017 -2.26901,-0.07022c-0.96569,0.4339 -1.79227,1.00518 -1.45962,1.74554c0.23864,0.53113 0.70198,0.65824 1.36529,0.46982z" data-paper-data="{&quot;glyphName&quot;:&quot;c&quot;,&quot;glyphIndex&quot;:4,&quot;word&quot;:1}" style="fill: rgb(255, 255, 255);"></path>
                <path d="M205.86618,300.83105l3.07217,-1.66357l-0.23805,-0.43962l-3.07217,1.66357l-0.40859,0.22125l0.23805,0.43962l0.70296,1.29817l0.40859,-0.22125z" data-paper-data="{&quot;glyphName&quot;:&quot;l&quot;,&quot;glyphIndex&quot;:5,&quot;word&quot;:1}" style="fill: rgb(255, 255, 255);"></path>
                <path d="M211.50381,303.43884c-0.43706,-0.68394 -1.20927,-0.40685 -2.255,0.26141c-0.83262,0.53207 -1.66524,1.06415 -1.66524,1.06415l0.26604,0.41631c0,0 0.35684,-0.22803 0.83262,-0.53207l0.53207,0.83262c-0.47578,0.30404 -0.83262,0.53207 -0.83262,0.53207l0.2692,0.42127c0,0 0.83262,-0.53207 1.66524,-1.06415c0.99121,-0.63342 1.61841,-1.25758 1.18768,-1.9316zM209.07376,304.39843c0.14868,-0.09501 0.29241,-0.18686 0.44109,-0.28187c0.88714,-0.56691 1.39969,-0.74787 1.60239,-0.43069c0.19636,0.30728 -0.18318,0.69639 -1.07031,1.2633c-0.14868,0.09501 -0.29241,0.18686 -0.44109,0.28187z" data-paper-data="{&quot;glyphName&quot;:&quot;a&quot;,&quot;glyphIndex&quot;:6,&quot;word&quot;:1}" style="fill: rgb(255, 255, 255);"></path>
                <path d="M210.79924,308.69528c0,0 -0.51272,0.45475 -0.94357,0.38348l-0.09317,0.30117c0.42281,0.14998 0.98025,-0.02422 1.38392,-0.31916z" data-paper-data="{&quot;glyphName&quot;:&quot;,&quot;,&quot;glyphIndex&quot;:7,&quot;lastGlyphOfWord&quot;:true,&quot;word&quot;:1}" style="fill: rgb(255, 255, 255);"></path>
                <path d="M216.83369,314.42388l-0.36173,0.33651l0.34052,0.36604c-0.26699,0.24838 -0.61241,0.24838 -0.79268,0.0546c-0.29645,-0.31867 0.29652,-0.95063 0.84343,-1.4594c0.5426,-0.50477 1.21569,-1.0506 1.51214,-0.73193c0.29645,0.31867 -0.29652,0.95063 -0.83912,1.45539l0.33651,0.36173c0.76653,-0.71308 1.37011,-1.5236 0.82128,-2.11357c-0.54883,-0.58997 -1.4048,-0.05074 -2.17132,0.66234c-0.77514,0.72109 -1.37041,1.53192 -0.82158,2.12188c0.38058,0.4091 0.90126,0.51114 1.80559,-0.33013z" data-paper-data="{&quot;glyphName&quot;:&quot;g&quot;,&quot;glyphIndex&quot;:8,&quot;firstGlyphOfWord&quot;:true,&quot;word&quot;:2}" style="fill: rgb(255, 255, 255);"></path>
                <path d="M221.8662,315.89178c-0.59093,-0.55641 -1.27202,-0.09904 -2.12277,0.80448c-0.67737,0.71939 -1.35474,1.43878 -1.35474,1.43878l0.3597,0.33869c0,0 0.2903,-0.30831 0.67737,-0.71939l0.71939,0.67737c-0.38707,0.41108 -0.67737,0.71939 -0.67737,0.71939l0.36398,0.34272c0,0 0.67737,-0.71939 1.35474,-1.43878c0.8064,-0.85642 1.26207,-1.61491 0.67971,-2.16326zM219.74428,317.41605c0.12096,-0.12846 0.23789,-0.25264 0.35885,-0.38111c0.72172,-0.76649 1.17453,-1.06721 1.44858,-0.80916c0.26549,0.24998 -0.00746,0.72004 -0.72919,1.48654c-0.12096,0.12846 -0.23789,0.25264 -0.35885,0.38111z" data-paper-data="{&quot;glyphName&quot;:&quot;a&quot;,&quot;glyphIndex&quot;:9,&quot;word&quot;:2}" style="fill: rgb(255, 255, 255);"></path>
                <path d="M225.74584,319.36049l-1.59634,2.00734c0.24175,-0.98894 0.43711,-2.15303 0.83294,-2.6347l-0.38624,-0.31741l-2.51317,3.05814l0.38624,0.31741l1.59634,-2.00734c-0.24256,0.98066 -0.43711,2.15303 -0.83294,2.6347l0.3817,0.31368l2.51317,-3.05814z" data-paper-data="{&quot;glyphName&quot;:&quot;n&quot;,&quot;glyphIndex&quot;:10,&quot;word&quot;:2}" style="fill: rgb(255, 255, 255);"></path>
                <path d="M229.14316,321.87399c-0.65967,-0.4729 -1.2739,0.07098 -1.99695,1.07961c-0.5757,0.80307 -1.1514,1.60615 -1.1514,1.60615l0.40154,0.28785c0,0 0.24673,-0.34417 0.5757,-0.80307l0.80307,0.5757c-0.32897,0.4589 -0.5757,0.80307 -0.5757,0.80307l0.40632,0.29128c0,0 0.5757,-0.80307 1.1514,-1.60615c0.68536,-0.95604 1.03612,-1.76839 0.38602,-2.23443zM227.24277,323.66688c0.1028,-0.14341 0.20218,-0.28203 0.30498,-0.42544c0.61339,-0.85566 1.02219,-1.21391 1.32812,-0.9946c0.29637,0.21246 0.08835,0.71464 -0.52505,1.5703c-0.1028,0.14341 -0.20218,0.28203 -0.30498,0.42544z" data-paper-data="{&quot;glyphName&quot;:&quot;a&quot;,&quot;glyphIndex&quot;:11,&quot;word&quot;:2}" style="fill: rgb(255, 255, 255);"></path>
                <path d="M230.42139,327.02212c0,0 -0.31218,0.61009 -0.73944,0.70044l0.02276,0.31443c0.4484,-0.01409 0.90429,-0.37913 1.17302,-0.8007z" data-paper-data="{&quot;glyphName&quot;:&quot;,&quot;,&quot;glyphIndex&quot;:12,&quot;lastGlyphOfWord&quot;:true,&quot;word&quot;:2}" style="fill: rgb(255, 255, 255);"></path>
                <path d="M238.31825,330.87701c-0.23924,0.34728 -0.48646,0.44732 -0.72323,0.32904c-0.39462,-0.19714 -0.06083,-0.99687 0.27299,-1.66509c0.3312,-0.66295 0.77021,-1.41012 1.16483,-1.21298c0.38409,0.19188 0.05557,0.99425 -0.27562,1.6572l0.44197,0.2208c0.47051,-0.94182 0.74374,-1.90987 0.02817,-2.26735c-0.72609,-0.36274 -1.3308,0.43971 -1.80131,1.38153c-0.47314,0.94708 -0.75163,1.9125 -0.02553,2.27524c0.52089,0.26023 0.96009,0.06543 1.35445,-0.50022z" data-paper-data="{&quot;glyphName&quot;:&quot;c&quot;,&quot;glyphIndex&quot;:13,&quot;firstGlyphOfWord&quot;:true,&quot;word&quot;:3}" style="fill: rgb(255, 255, 255);"></path>
                <path d="M242.43041,329.52457c0,0 -0.47104,1.10352 -0.7666,1.79592c-0.29787,0.69781 -0.8174,1.91492 0.11301,2.31208c0.93041,0.39716 1.44995,-0.81996 1.74782,-1.51777c0.29556,-0.6924 0.7666,-1.79592 0.7666,-1.79592l-0.46521,-0.19858c0,0 -0.47104,1.10352 -0.7666,1.79592c-0.29787,0.69781 -0.64653,1.51463 -1.11174,1.31605c-0.4598,-0.19627 -0.11113,-1.01309 0.18673,-1.7109c0.29556,-0.6924 0.7666,-1.79592 0.7666,-1.79592z" data-paper-data="{&quot;glyphName&quot;:&quot;u&quot;,&quot;glyphIndex&quot;:14,&quot;word&quot;:3}" style="fill: rgb(255, 255, 255);"></path>
                <path d="M245.91844,335.19376l1.36579,-3.71522l-0.46371,-0.17047l-1.36579,3.71522z" data-paper-data="{&quot;glyphName&quot;:&quot;i&quot;,&quot;glyphIndex&quot;:15,&quot;word&quot;:3}" style="fill: rgb(255, 255, 255);"></path>
                <path d="M250.39932,332.4665c-0.24151,-0.07507 -0.49661,-0.08661 -0.49661,-0.08661l-1.1749,3.77993c0,0 0.21669,0.1351 0.4582,0.21017c0.23028,0.07158 1.42895,0.37641 2.01728,-1.51637c0.58658,-1.88716 -0.57369,-2.31555 -0.80397,-2.38713zM249.32393,335.92629l0.93748,-3.01608c0.23028,0.07158 0.91003,0.38141 0.4701,1.79677c-0.44168,1.42098 -1.1773,1.29088 -1.40757,1.2193z" data-paper-data="{&quot;glyphName&quot;:&quot;d&quot;,&quot;glyphIndex&quot;:16,&quot;word&quot;:3}" style="fill: rgb(255, 255, 255);"></path>
                <path d="M255.34276,333.86637c-0.78784,-0.19518 -1.15717,0.5374 -1.4556,1.742c-0.23761,0.95911 -0.47522,1.91823 -0.47522,1.91823l0.47956,0.11881c0,0 0.10183,-0.41105 0.23761,-0.95911l0.95911,0.23761c-0.13578,0.54806 -0.23761,0.95911 -0.23761,0.95911l0.48527,0.12022c0,0 0.23761,-0.95911 0.47522,-1.91823c0.28287,-1.1418 0.30809,-2.02629 -0.46834,-2.21864zM254.24084,336.23528c0.04243,-0.17127 0.08345,-0.33683 0.12588,-0.5081c0.25317,-1.02191 0.50035,-1.50602 0.86572,-1.4155c0.35396,0.08769 0.34656,0.6312 0.09339,1.65311c-0.04243,0.17127 -0.08345,0.33683 -0.12588,0.5081z" data-paper-data="{&quot;glyphName&quot;:&quot;a&quot;,&quot;glyphIndex&quot;:17,&quot;lastGlyphOfWord&quot;:true,&quot;word&quot;:3}" style="fill: rgb(255, 255, 255);"></path>
                <path d="M264.66882,336.13415l0.06326,-0.46032l-1.46836,-0.20179l-0.49528,-0.06807l-0.06326,0.46032l-0.24423,1.77718l-0.06326,0.46032l-0.1049,0.76331l-0.06326,0.46032l0.49528,0.06807l1.46836,0.20179l0.06326,-0.46032l-1.46836,-0.20179l0.1049,-0.76331l1.42175,0.19539l0.06326,-0.46032l-1.42175,-0.19539l0.24423,-1.77718z" data-paper-data="{&quot;glyphName&quot;:&quot;e&quot;,&quot;glyphIndex&quot;:18,&quot;firstGlyphOfWord&quot;:true,&quot;word&quot;:4}" style="fill: rgb(255, 255, 255);"></path>
                <path d="M267.61785,339.48535l0.27826,-3.48257l-0.49835,-0.03982l-0.27826,3.48257l-0.03701,0.46317l0.49835,0.03982l1.47159,0.11758l0.03701,-0.46317z" data-paper-data="{&quot;glyphName&quot;:&quot;l&quot;,&quot;glyphIndex&quot;:19,&quot;lastGlyphOfWord&quot;:true,&quot;word&quot;:4}" style="fill: rgb(255, 255, 255);"></path>
                <path d="M276.29027,336.23166c-0.25285,0.0054 -0.49844,0.07535 -0.49844,0.07535l0.08446,3.95741l0.49982,-0.01067l-0.02108,-0.98788c0.49394,-0.01054 1.48044,-0.09631 1.44882,-1.57813c-0.03175,-1.4877 -1.01963,-1.46662 -1.51358,-1.45608zM276.34511,338.80133l-0.04493,-2.10513c0.49394,-0.01054 0.98401,0.07313 1.00384,1.00221c0.01845,0.8644 -0.46497,1.09238 -0.95891,1.10293z" data-paper-data="{&quot;glyphName&quot;:&quot;p&quot;,&quot;glyphIndex&quot;:20,&quot;firstGlyphOfWord&quot;:true,&quot;word&quot;:5}" style="fill: rgb(255, 255, 255);"></path>
                <path d="M281.16209,339.58106l-0.26823,-3.48336l-0.49846,0.03838l0.26823,3.48336l0.03567,0.46327l0.49846,-0.03838l1.47192,-0.11334l-0.03567,-0.46327z" data-paper-data="{&quot;glyphName&quot;:&quot;l&quot;,&quot;glyphIndex&quot;:21,&quot;word&quot;:5}" style="fill: rgb(255, 255, 255);"></path>
                <path d="M285.87877,335.52967c-0.80459,0.10686 -0.88002,0.9238 -0.71663,2.15402c0.13009,0.97951 0.26019,1.95901 0.26019,1.95901l0.48975,-0.06505c0,0 -0.05575,-0.41979 -0.13009,-0.97951l0.97951,-0.13009c0.07434,0.55972 0.13009,0.97951 0.13009,0.97951l0.49558,-0.06582c0,0 -0.13009,-0.97951 -0.26019,-1.95901c-0.15487,-1.16608 -0.45528,-1.99837 -1.24821,-1.89305zM285.72081,338.13754c-0.02323,-0.17491 -0.04569,-0.34399 -0.06892,-0.51891c-0.13861,-1.04364 -0.08587,-1.58464 0.28728,-1.6342c0.36148,-0.04801 0.55362,0.46046 0.69223,1.5041c0.02323,0.17491 0.04569,0.34399 0.06892,0.51891z" data-paper-data="{&quot;glyphName&quot;:&quot;a&quot;,&quot;glyphIndex&quot;:22,&quot;word&quot;:5}" style="fill: rgb(255, 255, 255);"></path>
                <path d="M291.0407,334.73544l0.52554,2.51028c-0.60673,-0.81751 -1.37787,-1.71117 -1.49581,-2.32336l-0.49091,0.09457l0.74881,3.88684l0.49091,-0.09457l-0.52554,-2.51028c0.59984,0.81285 1.37787,1.71117 1.49581,2.32336l0.48513,-0.09346l-0.74881,-3.88684z" data-paper-data="{&quot;glyphName&quot;:&quot;n&quot;,&quot;glyphIndex&quot;:23,&quot;word&quot;:5}" style="fill: rgb(255, 255, 255);"></path>
                <path d="M296.27103,333.99711l-0.11477,-0.45025l-1.43624,0.36609l-0.48445,0.12348l0.11477,0.45025l0.44309,1.7383l0.11477,0.45025l0.19031,0.74662l0.11477,0.45025l0.48445,-0.12348l1.43624,-0.36609l-0.11477,-0.45025l-1.43624,0.36609l-0.19031,-0.74662l1.39064,-0.35447l-0.11477,-0.45025l-1.39064,0.35447l-0.44309,-1.7383z" data-paper-data="{&quot;glyphName&quot;:&quot;e&quot;,&quot;glyphIndex&quot;:24,&quot;word&quot;:5}" style="fill: rgb(255, 255, 255);"></path>
                <path d="M300.48842,332.2518l-0.71214,0.2254l-0.46542,0.14731l-0.71214,0.2254l0.14021,0.44299l0.71214,-0.2254l1.05423,3.33081l0.46542,-0.14731l-1.05423,-3.33081l0.71214,-0.2254z" data-paper-data="{&quot;glyphName&quot;:&quot;t&quot;,&quot;glyphIndex&quot;:25,&quot;word&quot;:5}" style="fill: rgb(255, 255, 255);"></path>
                <path d="M303.69716,331.04434c-0.75882,0.28807 -0.64538,1.1006 -0.20493,2.26083c0.35069,0.92378 0.70139,1.84756 0.70139,1.84756l0.46189,-0.17535c0,0 -0.1503,-0.39591 -0.35069,-0.92378l0.92378,-0.35069c0.2004,0.52787 0.35069,0.92378 0.35069,0.92378l0.46739,-0.17743c0,0 -0.35069,-0.92378 -0.70139,-1.84756c-0.41749,-1.09974 -0.90031,-1.84125 -1.64813,-1.55735zM304.1399,333.6192c-0.06262,-0.16496 -0.12316,-0.32442 -0.18578,-0.48938c-0.37366,-0.98427 -0.44606,-1.52299 -0.09414,-1.65658c0.34092,-0.12942 0.64426,0.32162 1.01792,1.30589c0.06262,0.16496 0.12316,0.32442 0.18578,0.48938z" data-paper-data="{&quot;glyphName&quot;:&quot;a&quot;,&quot;glyphIndex&quot;:26,&quot;lastGlyphOfWord&quot;:true,&quot;word&quot;:5}" style="fill: rgb(255, 255, 255);"></path>
                <path d="M313.30057,330.0579c0.1381,0.39846 0.07227,0.6569 -0.16328,0.7776c-0.39258,0.20117 -0.83922,-0.54145 -1.17987,-1.20622c-0.33797,-0.65953 -0.67992,-1.4558 -0.28735,-1.65697c0.38211,-0.19581 0.83398,0.54414 1.17195,1.20366l0.43969,-0.22531c-0.48013,-0.93695 -1.09826,-1.73049 -1.81013,-1.36569c-0.72234,0.37016 -0.43398,1.33268 0.04615,2.26963c0.48281,0.94218 1.09571,1.7384 1.81805,1.36824c0.5182,-0.26555 0.6214,-0.73479 0.39924,-1.38758z" data-paper-data="{&quot;glyphName&quot;:&quot;c&quot;,&quot;glyphIndex&quot;:27,&quot;firstGlyphOfWord&quot;:true,&quot;word&quot;:6}" style="fill: rgb(255, 255, 255);"></path>
                <path d="M315.51558,325.33975c-0.69821,0.41388 -0.34819,1.36191 0.18566,2.26249c0.53685,0.90564 1.19755,1.66266 1.89576,1.24878c0.68809,-0.40789 0.37406,-1.2952 -0.19578,-2.25649c-0.53385,-0.90059 -1.19755,-1.66266 -1.88564,-1.25478zM317.37806,328.48168c-0.37946,0.22494 -0.87093,-0.48881 -1.25182,-1.13137c-0.37789,-0.63749 -0.76818,-1.41123 -0.38872,-1.63616c0.36934,-0.21894 0.86081,0.49481 1.23871,1.1323c0.38089,0.64255 0.77117,1.41629 0.40183,1.63522z" data-paper-data="{&quot;glyphName&quot;:&quot;o&quot;,&quot;glyphIndex&quot;:28,&quot;word&quot;:6}" style="fill: rgb(255, 255, 255);"></path>
                <path d="M319.91941,322.60838l1.47926,2.09511c-0.8815,-0.50932 -1.94413,-1.02322 -2.29549,-1.53823l-0.41297,0.28176l2.23086,3.26979l0.41297,-0.28176l-1.47926,-2.09511c0.87332,0.50778 1.94413,1.02322 2.29549,1.53823l0.40812,-0.27844l-2.23086,-3.26979z" data-paper-data="{&quot;glyphName&quot;:&quot;n&quot;,&quot;glyphIndex&quot;:29,&quot;lastGlyphOfWord&quot;:true,&quot;word&quot;:6}" style="fill: rgb(255, 255, 255);"></path>
                <path d="M327.34727,317.33676l-0.30595,-0.3497l-1.1155,0.97594l-0.37626,0.32919l0.30595,0.3497l1.1812,1.35011l0.30595,0.3497l0.50734,0.57988l0.30595,0.3497l0.37626,-0.32919l1.1155,-0.97594l-0.30595,-0.3497l-1.1155,0.97594l-0.50734,-0.57988l1.08009,-0.94496l-0.30595,-0.3497l-1.08009,0.94496l-1.1812,-1.35011z" data-paper-data="{&quot;glyphName&quot;:&quot;e&quot;,&quot;glyphIndex&quot;:30,&quot;firstGlyphOfWord&quot;:true,&quot;word&quot;:7}" style="fill: rgb(255, 255, 255);"></path>
                <path d="M332.10411,316.24932c0.25363,0.33692 0.27022,0.60309 0.08304,0.79021c-0.31197,0.31186 -0.96482,-0.25803 -1.49291,-0.7863c-0.52393,-0.52412 -1.09358,-1.17717 -0.78161,-1.48903c0.30366,-0.30355 0.96066,0.26218 1.48459,0.7863l0.34941,-0.34929c-0.74431,-0.74458 -1.57599,-1.31034 -2.14171,-0.74483c-0.57403,0.57383 -0.00441,1.40155 0.7399,2.14613c0.74847,0.74874 1.57599,1.31866 2.15003,0.74483c0.41181,-0.41166 0.36614,-0.88994 -0.04549,-1.44315z" data-paper-data="{&quot;glyphName&quot;:&quot;c&quot;,&quot;glyphIndex&quot;:31,&quot;word&quot;:7}" style="fill: rgb(255, 255, 255);"></path>
                <path d="M332.74422,311.07887c-0.5334,0.61179 0.096,1.40243 0.88511,2.09043c0.79355,0.69187 1.65815,1.20379 2.19155,0.592c0.52566,-0.60292 -0.05053,-1.34718 -0.89284,-2.08157c-0.78911,-0.688 -1.65815,-1.20379 -2.18382,-0.60087zM335.49725,313.47914c-0.28989,0.33249 -0.98023,-0.19136 -1.54325,-0.68224c-0.55859,-0.48701 -1.17162,-1.09953 -0.88173,-1.43202c0.28216,-0.32363 0.97249,0.20022 1.53108,0.68724c0.56302,0.49088 1.17605,1.10339 0.89389,1.42702z" data-paper-data="{&quot;glyphName&quot;:&quot;o&quot;,&quot;glyphIndex&quot;:32,&quot;word&quot;:7}" style="fill: rgb(255, 255, 255);"></path>
                <path d="M338.78772,309.26866c-0.12406,0.16427 -0.53489,-0.10176 -0.769,-0.0943c0.13902,-0.41831 0.13742,-1.00177 -0.58539,-1.54763c-1.18747,-0.89677 -1.78295,-0.10825 -2.08069,0.28601c-0.14887,0.19713 -0.24966,0.43794 -0.24966,0.43794v0l3.15876,2.38547l0.30129,-0.39895l-0.84015,-0.63447c0.29774,-0.39426 1.01718,0.45861 1.46379,-0.13278c0.18432,-0.24406 0.04898,-0.58212 0.04898,-0.58212l-0.43307,0.0562c0,0 0.05957,0.12606 -0.01486,0.22463zM335.7469,308.21048c0.29774,-0.39426 0.64711,-0.74953 1.38869,-0.18949c0.68995,0.52105 0.49078,0.98974 0.19304,1.384z" data-paper-data="{&quot;glyphName&quot;:&quot;r&quot;,&quot;glyphIndex&quot;:33,&quot;word&quot;:7}" style="fill: rgb(255, 255, 255);"></path>
                <path d="M339.26626,303.21501l-0.38998,-0.25261l-0.80579,1.24399l-0.27179,0.4196l0.38998,0.25261l1.50562,0.97526l0.38998,0.25261l0.64668,0.41888l0.38998,0.25261l0.27179,-0.4196l0.80579,-1.24399l-0.38998,-0.25261l-0.80579,1.24399l-0.64668,-0.41888l0.78021,-1.2045l-0.38998,-0.25261l-0.78021,1.2045l-1.50562,-0.97526z" data-paper-data="{&quot;glyphName&quot;:&quot;e&quot;,&quot;glyphIndex&quot;:34,&quot;word&quot;:7}" style="fill: rgb(255, 255, 255);"></path>
                <path d="M341.25073,298.80267l2.51803,1.73619l-2.8146,-1.1878l-0.05875,0.10864l-0.11751,0.21729l-0.05875,0.10864l2.54042,1.6948l-2.83419,-1.15158l-0.23502,0.43458l3.77835,1.33454l0.05596,-0.10347l0.08953,-0.16555l0.08673,-0.16038l-2.2054,-1.47351l2.44042,1.03893l0.08953,-0.16555l0.08953,-0.16555l0.05875,-0.10864l-3.18801,-2.42615z" data-paper-data="{&quot;glyphName&quot;:&quot;w&quot;,&quot;glyphIndex&quot;:35,&quot;word&quot;:7}" style="fill: rgb(255, 255, 255);"></path>
                <path d="M342.85881,295.34232c-0.32999,0.74155 0.32669,1.23334 1.46052,1.73788c0.90276,0.40172 1.80552,0.80344 1.80552,0.80344l0.20086,-0.45138c0,0 -0.3869,-0.17217 -0.90276,-0.40172l0.40172,-0.90276c0.51586,0.22956 0.90276,0.40172 0.90276,0.40172l0.20325,-0.45675c0,0 -0.90276,-0.40172 -1.80552,-0.80344c-1.07471,-0.47824 -1.94115,-0.65779 -2.26635,0.07301zM344.99843,296.84164c-0.16121,-0.07174 -0.31704,-0.14108 -0.47825,-0.21282c-0.96187,-0.42803 -1.39528,-0.75608 -1.24224,-1.09999c0.14825,-0.33316 0.68209,-0.2308 1.64396,0.19723c0.16121,0.07174 0.31704,0.14108 0.47825,0.21282z" data-paper-data="{&quot;glyphName&quot;:&quot;a&quot;,&quot;glyphIndex&quot;:36,&quot;word&quot;:7}" style="fill: rgb(255, 255, 255);"></path>
                <path d="M348.10784,291.70901c-0.06864,0.19408 -0.54064,0.06457 -0.76157,0.1424c0.00616,-0.44076 -0.17161,-0.99649 -1.02554,-1.2985c-1.40289,-0.49617 -1.73236,0.4354 -1.89709,0.90118c-0.08237,0.23289 -0.1057,0.4929 -0.1057,0.4929v0l3.73179,1.31984l0.1667,-0.47133l-0.99256,-0.35104c0.16473,-0.46578 1.10819,0.12992 1.3553,-0.56875c0.10198,-0.28834 -0.12915,-0.56972 -0.12915,-0.56972l-0.39586,0.1844c0,0 0.09487,0.10218 0.05369,0.21862zM344.88942,291.61883c0.16473,-0.46578 0.39046,-0.90999 1.26658,-0.60013c0.81512,0.28829 0.76683,0.79525 0.60209,1.26103z" data-paper-data="{&quot;glyphName&quot;:&quot;r&quot;,&quot;glyphIndex&quot;:37,&quot;word&quot;:7}" style="fill: rgb(255, 255, 255);"></path>
                <path d="M345.79382,287.17865c-0.06587,0.24418 -0.06775,0.49953 -0.06775,0.49953l3.82168,1.03101c0,0 0.12681,-0.22165 0.19268,-0.46583c0.06281,-0.23282 0.32206,-1.44218 -1.59163,-1.95844c-1.908,-0.51474 -2.29218,0.66091 -2.35499,0.89374zM349.29183,288.12233l-3.0494,-0.82266c0.06281,-0.23282 0.34669,-0.92381 1.7777,-0.53776c1.43668,0.38758 1.33451,1.1276 1.2717,1.36042z" data-paper-data="{&quot;glyphName&quot;:&quot;d&quot;,&quot;glyphIndex&quot;:38,&quot;word&quot;:7}" style="fill: rgb(255, 255, 255);"></path>
                <path d="M348.27699,281.55901c-0.49135,-0.09226 -1.16189,-0.21818 -1.34534,0.75874c-0.14871,0.79194 0.55793,1.04432 0.73713,1.07797c1.50873,0.28331 1.73673,-1.1221 2.52866,-0.97339c0.24278,0.04559 0.39411,0.25952 0.34744,0.50809c-0.03474,0.18498 -0.13813,0.41691 -0.69885,0.31162l-0.09118,0.48557c0.61852,0.11615 1.08501,-0.04162 1.21201,-0.71794c0.16065,-0.85552 -0.49904,-1.03924 -0.67824,-1.07289c-1.18502,-0.22252 -1.32992,1.18652 -2.52649,0.96183c-0.36418,-0.06838 -0.43129,-0.38021 -0.4085,-0.5016c0.08032,-0.42776 0.34083,-0.44467 0.83218,-0.35241z" data-paper-data="{&quot;glyphName&quot;:&quot;s&quot;,&quot;glyphIndex&quot;:39,&quot;word&quot;:7}" style="fill: rgb(255, 255, 255);"></path>
                <path d="M351.29112,278.78458c-0.16929,-0.02079 -0.32661,0.10211 -0.3474,0.2714c-0.02079,0.16929 0.10283,0.32077 0.27212,0.34156c0.16929,0.02079 0.32589,-0.09627 0.34668,-0.26557c0.02079,-0.16929 -0.10211,-0.32661 -0.2714,-0.3474z" data-paper-data="{&quot;glyphName&quot;:&quot;.&quot;,&quot;glyphIndex&quot;:40,&quot;lastGlyphOfWord&quot;:true,&quot;word&quot;:7}" style="fill: rgb(255, 255, 255);"></path>
            </g>
            <g data-paper-data="{&quot;isContainerElementsWrapper&quot;:true}">
                <path d="M199.4227,250.56289v-35.88061h2.02454v35.88061z" data-paper-data="{&quot;isLeftLineConnector&quot;:true}" fill-rule="nonzero" style="fill: rgb(255, 255, 255);"></path>
                <path d="M350.57736,250.56289v-35.88061h2.02454v35.88061z" data-paper-data="{&quot;isRightLineConnector&quot;:true}" fill-rule="nonzero" style="fill: rgb(255, 255, 255);"></path>
                <path d="M211.46611,127.7845c-8.64688,6.95224 -15.6289,15.03549 -20.94607,24.24976c-5.5099,9.54819 -8.87318,19.70276 -10.08984,30.4637c-0.02195,0.19385 -0.03292,0.38837 -0.03292,0.58356v103.83674c0,0.19483 0.01097,0.38929 0.03292,0.5834c1.21673,10.7608 4.58001,20.91538 10.08984,30.46375c5.31702,9.21412 12.29903,17.29749 20.94602,24.25009c8.60704,6.92037 18.28513,12.25442 29.03427,16.00213c11.05756,3.85491 22.55748,5.78237 34.49973,5.78237c11.94352,0 23.44362,-1.92746 34.50027,-5.78237c10.74885,-3.74772 20.42668,-9.08176 29.03351,-16.00213c8.64739,-6.95296 15.6295,-15.03632 20.94634,-24.25009c5.50986,-9.54837 8.87299,-19.70296 10.0894,-30.46375c0.02209,-0.1941 0.03314,-0.38857 0.03314,-0.5834v-103.83674c0,-0.19523 -0.01105,-0.38984 -0.03314,-0.58383c-1.21604,-10.76047 -4.57918,-20.91495 -10.0894,-30.46343c-5.31684,-9.21423 -12.29896,-17.29749 -20.94634,-24.24976c-8.60646,-6.92073 -18.2843,-12.25478 -29.03351,-16.00213c-11.05738,-3.85491 -22.55748,-5.78237 -34.50027,-5.78237c-11.94276,0 -23.44269,1.92746 -34.49979,5.78237c-10.74877,3.74736 -20.42683,9.0814 -29.03416,16.00213zM181.57972,182.6279c1.19873,-10.60135 4.51283,-20.6065 9.9423,-30.01545c5.24492,-9.08908 12.1346,-17.06449 20.66903,-23.92623c8.50348,-6.83744 18.06685,-12.10775 28.69011,-15.81093c10.93328,-3.81218 22.30624,-5.71827 34.11889,-5.71827c11.81243,0 23.18541,1.90609 34.11895,5.71827c10.62319,3.70318 20.18659,8.97349 28.69021,15.81093c8.53476,6.86189 15.42453,14.8373 20.66931,23.92623c5.42947,9.40942 8.74335,19.41466 9.94165,30.01572c0.01702,0.15061 0.02553,0.30173 0.02553,0.45335v103.83674c0,0.15137 -0.00851,0.30238 -0.02553,0.45303c-1.1983,10.60146 -4.51218,20.60684 -9.94165,30.01616c-5.24514,9.08919 -12.13491,17.06463 -20.66931,23.92634c-8.50326,6.83708 -18.06666,12.10739 -28.69021,15.81093c-10.9339,3.81218 -22.30688,5.71827 -34.11895,5.71827c-11.81265,0 -23.18563,-1.90609 -34.11895,-5.71827c-10.62333,-3.70318 -20.1867,-8.97349 -28.69012,-15.81093c-8.53402,-6.86134 -15.42367,-14.83679 -20.66896,-23.92634c-5.42958,-9.40931 -8.74368,-19.4147 -9.9423,-30.01616c-0.01702,-0.15065 -0.02553,-0.30166 -0.02553,-0.45303v-103.83674c0,-0.1517 0.00851,-0.30291 0.02553,-0.45363z" data-paper-data="{&quot;isAdditionalOutlinePath&quot;:true}" fill-rule="evenodd" style="fill: rgb(255, 255, 255);"></path>
                <path d="M213.91648,130.83185c-8.26656,6.64671 -14.93637,14.36567 -20.00943,23.1569c-5.23837,9.07778 -8.43539,18.72728 -9.59107,28.9485c-0.00543,0.04755 -0.00815,0.09564 -0.00815,0.14427v103.83674c0,0.04853 0.00275,0.09687 0.00826,0.14503c1.15557,10.22049 4.35255,19.86972 9.59096,28.94768c5.07273,8.79079 11.74253,16.50966 20.00941,23.15662c8.25539,6.63827 17.54579,11.75739 27.87119,15.35736c10.63955,3.7097 21.71035,5.56454 33.2124,5.56454c11.50027,0 22.57106,-1.85485 33.21235,-5.56454c10.32298,-3.59852 19.61351,-8.71764 27.8716,-15.35736c8.2657,-6.64587 14.93547,-14.36475 20.00932,-23.15662c5.23717,-9.07615 8.43373,-18.72302 9.58966,-28.94062c0.00652,-0.05034 0.00978,-0.10104 0.00978,-0.1521v-103.83674c0,-0.0511 -0.00326,-0.10198 -0.00978,-0.15264c-1.15665,-10.21821 -4.35321,-19.8649 -9.58966,-28.94008c-5.07277,-8.79115 -11.74254,-16.51014 -20.00932,-23.15695c-8.25737,-6.63899 -17.5479,-11.75811 -27.8716,-15.35736c-10.64093,-3.70933 -21.71171,-5.564 -33.21235,-5.564c-11.50219,0 -22.57299,1.85467 -33.2124,5.564c-10.32493,3.59997 -19.61532,8.71909 -27.87117,15.35736zM186.33234,183.12351c1.12805,-9.92651 4.23747,-19.30081 9.32827,-28.12289c4.94674,-8.57231 11.4549,-16.10275 19.52447,-22.59132c8.07449,-6.49197 17.16418,-11.49955 27.26908,-15.02274c10.42365,-3.63401 21.27228,-5.45101 32.54589,-5.45101c11.27213,0 22.12092,1.817 32.54638,5.45101c10.10352,3.52247 19.19307,8.53005 27.26865,15.02274c8.07014,6.48871 14.57841,14.01913 19.52479,22.59126c5.09087,8.82327 8.20015,18.19889 9.32783,28.12685v103.74467c-1.12696,9.92753 -4.23624,19.30334 -9.32783,28.12745c-4.94783,8.57279 -11.45609,16.10299 -19.52479,22.59061c-8.0763,6.49342 -17.16585,11.501 -27.26865,15.02274c-10.42582,3.63437 -21.27462,5.45156 -32.54638,5.45156c-11.27343,0 -22.12206,-1.81719 -32.54589,-5.45156c-10.10584,-3.5232 -19.19553,-8.53078 -27.26906,-15.02274c-8.07005,-6.48907 -14.57821,-14.01927 -19.52448,-22.59061c-5.09066,-8.8223 -8.20008,-18.19666 -9.32827,-28.1231z" data-paper-data="{&quot;isBaseLogoContainer&quot;:true}" fill-rule="evenodd" style="fill: rgb(255, 255, 255);"></path>
            </g>
        </g>
    </g>
</svg>